o 
v -5 -13.741136093785217 0
v -5 13.741136093785217 0
v -10 18.32151479171362 -7.131732919946282
v -10 -18.32151479171362 -7.131732919946282
v -5 -13.741136093785217 0
v -10 18.32151479171362 -7.131732919946282
v 5 -13.741136093785217 0
v -5 -13.741136093785217 0
v -10 -18.32151479171362 -7.131732919946282
v 10 -18.32151479171362 -7.131732919946282
v 5 -13.741136093785217 0
v -10 -18.32151479171362 -7.131732919946282
v 5 13.741136093785217 0
v 5 -13.741136093785217 0
v 10 -18.32151479171362 -7.131732919946282
v 10 18.32151479171362 -7.131732919946282
v 5 13.741136093785217 0
v 10 -18.32151479171362 -7.131732919946282
v -5 13.741136093785217 0
v 5 13.741136093785217 0
v 10 18.32151479171362 -7.131732919946282
v -10 18.32151479171362 -7.131732919946282
v -5 13.741136093785217 0
v 10 18.32151479171362 -7.131732919946282
v 5 13.741136093785217 0
v -5 13.741136093785217 0
v -5 -13.741136093785217 0
v 5 -13.741136093785217 0
v 5 13.741136093785217 0
v -5 -13.741136093785217 0
v 10 -18.32151479171362 -7.131732919946282
v -10 -18.32151479171362 -7.131732919946282
v -10 18.32151479171362 -7.131732919946282
v 10 18.32151479171362 -7.131732919946282
v 10 -18.32151479171362 -7.131732919946282
v -10 18.32151479171362 -7.131732919946282
vt 0.349853515625 1.0999755859375
vt 0.04998779296875 1.0999755859375
vt 0 1
vt 0.39990234375 1
vt 0.349853515625 1.0999755859375
vt 0 1
vt 0.14990234375 1.0999755859375
vt 0.04998779296875 1.0999755859375
vt 0 1
vt 0.199951171875 1
vt 0.14990234375 1.0999755859375
vt 0 1
vt 0.349853515625 1.0999755859375
vt 0.04998779296875 1.0999755859375
vt 0 1
vt 0.39990234375 1
vt 0.349853515625 1.0999755859375
vt 0 1
vt 0.14990234375 1.0999755859375
vt 0.04998779296875 1.0999755859375
vt 0 1
vt 0.199951171875 1
vt 0.14990234375 1.0999755859375
vt 0 1
vt 0.14990234375 1.349853515625
vt 0.04998779296875 1.349853515625
vt 0.04998779296875 1.04998779296875
vt 0.14990234375 1.04998779296875
vt 0.14990234375 1.349853515625
vt 0.04998779296875 1.04998779296875
vt 0.199951171875 1.39990234375
vt 0 1.39990234375
vt 0 1
vt 0.199951171875 1
vt 0.199951171875 1.39990234375
vt 0 1
vn -0.8223399277287968 0.003919926115883793 0.5689830203461638
vn -0.8223399277287968 0.003919926115883793 0.5689830203461638
vn -0.8223399277287968 0.003919926115883793 0.5689830203461638
vn -0.8223399277287968 0.003919926115883793 0.5689830203461638
vn -0.8223399277287968 0.003919926115883793 0.5689830203461638
vn -0.8223399277287968 0.003919926115883793 0.5689830203461638
vn -0.003399867055417342 -0.8424868201652757 0.5387062267616812
vn -0.003399867055417342 -0.8424868201652757 0.5387062267616812
vn -0.003399867055417342 -0.8424868201652757 0.5387062267616812
vn -0.003399867055417342 -0.8424868201652757 0.5387062267616812
vn -0.003399867055417342 -0.8424868201652757 0.5387062267616812
vn -0.003399867055417342 -0.8424868201652757 0.5387062267616812
vn 0.8199939937197855 0.0039431811333903635 0.5723585428610511
vn 0.8199939937197855 0.0039431811333903635 0.5723585428610511
vn 0.8199939937197855 0.0039431811333903635 0.5723585428610511
vn 0.8199939937197855 0.0039431811333903635 0.5723585428610511
vn 0.8199939937197855 0.0039431811333903635 0.5723585428610511
vn 0.8199939937197855 0.0039431811333903635 0.5723585428610511
vn -0.0033787115336462404 0.8446209444425031 0.5353541300087508
vn -0.0033787115336462404 0.8446209444425031 0.5353541300087508
vn -0.0033787115336462404 0.8446209444425031 0.5353541300087508
vn -0.0033787115336462404 0.8446209444425031 0.5353541300087508
vn -0.0033787115336462404 0.8446209444425031 0.5353541300087508
vn -0.0033787115336462404 0.8446209444425031 0.5353541300087508
vn -0.002796691197593357 0.0030529038994725846 0.9999914291113329
vn -0.002796691197593357 0.0030529038994725846 0.9999914291113329
vn -0.002796691197593357 0.0030529038994725846 0.9999914291113329
vn -0.002796691197593357 0.0030529038994725846 0.9999914291113329
vn -0.002796691197593357 0.0030529038994725846 0.9999914291113329
vn -0.002796691197593357 0.0030529038994725846 0.9999914291113329
vn -0.002796691197593357 0.0030529038994725846 -0.9999914291113329
vn -0.002796691197593357 0.0030529038994725846 -0.9999914291113329
vn -0.002796691197593357 0.0030529038994725846 -0.9999914291113329
vn -0.002796691197593357 0.0030529038994725846 -0.9999914291113329
vn -0.002796691197593357 0.0030529038994725846 -0.9999914291113329
vn -0.002796691197593357 0.0030529038994725846 -0.9999914291113329
f 1/1/1 2/2/2 3/3/3
f 4/4/4 5/5/5 6/6/6
f 7/7/7 8/8/8 9/9/9
f 10/10/10 11/11/11 12/12/12
f 13/13/13 14/14/14 15/15/15
f 16/16/16 17/17/17 18/18/18
f 19/19/19 20/20/20 21/21/21
f 22/22/22 23/23/23 24/24/24
f 25/25/25 26/26/26 27/27/27
f 28/28/28 29/29/29 30/30/30
f 31/31/31 32/32/32 33/33/33
f 34/34/34 35/35/35 36/36/36
